<?xml version="1.0"?>
<svg xmlns="http://www.w3.org/2000/svg" width="512" height="512" viewBox="0 0 128 128"><g><path d="M98.47,59.755a16.355,16.355,0,0,0-15.2-10.226h-.812V42.521a1.75,1.75,0,0,0-1.75-1.75h-11a1.75,1.75,0,0,0-1.75,1.75v7.008H60.047V42.521a1.75,1.75,0,0,0-1.75-1.75h-11a1.75,1.75,0,0,0-1.75,1.75v7.008h-.812a16.355,16.355,0,0,0-15.2,10.226L14.808,95.919a16.345,16.345,0,0,0-1.212,6.189v13.449a7.759,7.759,0,0,0,7.75,7.75h85.308a7.759,7.759,0,0,0,7.75-7.75V102.108a16.345,16.345,0,0,0-1.212-6.189Zm12.434,55.8a4.255,4.255,0,0,1-4.25,4.25H21.346a4.255,4.255,0,0,1-4.25-4.25V102.108a12.864,12.864,0,0,1,.953-4.869L32.771,61.075a12.87,12.87,0,0,1,11.964-8.046H47.3a1.75,1.75,0,0,0,1.75-1.75V44.271h7.5v7.008a1.75,1.75,0,0,0,1.75,1.75H69.7a1.75,1.75,0,0,0,1.75-1.75V44.271h7.5v7.008a1.75,1.75,0,0,0,1.75,1.75h2.562a12.87,12.87,0,0,1,11.964,8.046l14.722,36.164a12.864,12.864,0,0,1,.953,4.869Z"/><path d="M104.717,91.016a1.75,1.75,0,1,0-3.241,1.32l2.918,7.166a1.75,1.75,0,1,0,3.241-1.32Z"/><path d="M64,60.341A26.077,26.077,0,1,0,90.077,86.418,26.106,26.106,0,0,0,64,60.341ZM64,109A22.577,22.577,0,1,1,86.577,86.418,22.6,22.6,0,0,1,64,109Z"/><path d="M74.389,81H69.417V76.029a1.751,1.751,0,0,0-1.75-1.75H60.333a1.751,1.751,0,0,0-1.75,1.75V81H53.611a1.75,1.75,0,0,0-1.75,1.75v7.334a1.75,1.75,0,0,0,1.75,1.75h4.972v4.972a1.751,1.751,0,0,0,1.75,1.75h7.334a1.751,1.751,0,0,0,1.75-1.75V91.835h4.972a1.75,1.75,0,0,0,1.75-1.75V82.751A1.75,1.75,0,0,0,74.389,81Zm-1.75,7.334H67.667a1.749,1.749,0,0,0-1.75,1.75v4.972H62.083V90.085a1.749,1.749,0,0,0-1.75-1.75H55.361V84.5h4.972a1.749,1.749,0,0,0,1.75-1.75V77.779h3.834v4.972a1.749,1.749,0,0,0,1.75,1.75h4.972Z"/><path d="M113.428,12.775C97.324,7.318,82.755,3.684,64,3.684s-33.324,3.634-49.427,9.09C7.144,15.286,2.9,24.289,5.5,32.041l3.1,9.24a7.764,7.764,0,0,0,8.789,5.154l12.929-2.446a7.735,7.735,0,0,0,6.309-7.733l-.04-2.54A3.567,3.567,0,0,1,39.035,30.3a131.5,131.5,0,0,1,13.2-3.678,53.776,53.776,0,0,1,23.53,0A131.469,131.469,0,0,1,88.959,30.3a3.569,3.569,0,0,1,2.456,3.426l-.039,2.533a7.736,7.736,0,0,0,6.309,7.734l12.929,2.446a7.784,7.784,0,0,0,8.789-5.154l3.1-9.24C125.1,24.289,120.856,15.287,113.428,12.775Zm5.753,18.155-3.1,9.24A4.264,4.264,0,0,1,111.265,43L98.336,40.55a4.242,4.242,0,0,1-3.46-4.241l.039-2.529a7.06,7.06,0,0,0-4.825-6.8,134.8,134.8,0,0,0-13.554-3.777,57.264,57.264,0,0,0-25.072,0,134.741,134.741,0,0,0-13.559,3.779,7.056,7.056,0,0,0-4.82,6.789l.039,2.536a4.242,4.242,0,0,1-3.459,4.24L16.735,43a4.263,4.263,0,0,1-4.819-2.825l-3.1-9.24c-1.97-5.884,1.306-12.957,6.876-14.84C31.471,10.744,45.724,7.184,64,7.184s32.529,3.56,48.305,8.906h0C117.875,17.973,121.151,25.046,119.181,30.93Z"/></g></svg>
